# xmcd
#
# Track frame offsets:
#	150
#	14495
#	28510
#	42198
#	55882
#	69930
#	83693
#	96662
#	110857
#	123975
#	136743
#	150405
#	162510
#	176384
#	189176
#	203406
#	214851
#	228895
#	242924
#	257126
#	271034
#	283886
#	296506
#	309630
#
# Disc length: 4307 seconds
#
# Revision: 1
# Processed by: cddbd v1.4PL0 Copyright (c) Steve Scherf et al.
# Submitted via: CDmax 2.0
#
DISCID=4f10d118
DTITLE=Charley Patton - Screamin' and hollerin' the blues - CD 1
DYEAR=2003
DGENRE=Blues
TTITLE0=Frankie and Albert
TTITLE1=Shake it and break it
TTITLE2=High water everywhere part 1
TTITLE3=High water everywhere part 1
TTITLE4=Magnolia blues
TTITLE5=Screamin' and hollerin' the blues
TTITLE6=Jesue is a dying bed maker
TTITLE7=Mississippi boweavil blues
TTITLE8=34 blues
TTITLE9=Heart like railroad steel
TTITLE10=Going to move to Alabama
TTITLE11=Rattlesnake blues
TTITLE12=Prayer of death part 1
TTITLE13=Prayer of death part 2
TTITLE14=Green river blues
TTITLE15=Circle round the moon
TTITLE16=High sheriff blues
TTITLE17=Lord, I'm discouraged
TTITLE18=Some happy day
TTITLE19=Tom Rushen blues
TTITLE20=Running wild blues
TTITLE21=Stone pony blues
TTITLE22=You're gonna need somebody when you die
TTITLE23=Elder greene blues
EXTD=
EXTT0=
EXTT1=
EXTT2=
EXTT3=
EXTT4=
EXTT5=
EXTT6=
EXTT7=
EXTT8=
EXTT9=
EXTT10=
EXTT11=
EXTT12=
EXTT13=
EXTT14=
EXTT15=
EXTT16=
EXTT17=
EXTT18=
EXTT19=
EXTT20=
EXTT21=
EXTT22=
EXTT23=
PLAYORDER=
